<svg width="30" height="30" viewBox="0 0 30 30" fill="none" xmlns="http://www.w3.org/2000/svg">
<path d="M5.775 22.65C7.05 21.675 8.475 20.906 10.05 20.343C11.625 19.781 13.275 19.5 15 19.5C16.725 19.5 18.375 19.781 19.95 20.343C21.525 20.906 22.95 21.675 24.225 22.65C25.1 21.625 25.7815 20.4625 26.2695 19.1625C26.7565 17.8625 27 16.475 27 15C27 11.675 25.8315 8.8435 23.4945 6.5055C21.1565 4.1685 18.325 3 15 3C11.675 3 8.844 4.1685 6.507 6.5055C4.169 8.8435 3 11.675 3 15C3 16.475 3.244 17.8625 3.732 19.1625C4.219 20.4625 4.9 21.625 5.775 22.65ZM15 16.5C13.525 16.5 12.281 15.994 11.268 14.982C10.256 13.969 9.75 12.725 9.75 11.25C9.75 9.775 10.256 8.531 11.268 7.518C12.281 6.506 13.525 6 15 6C16.475 6 17.719 6.506 18.732 7.518C19.744 8.531 20.25 9.775 20.25 11.25C20.25 12.725 19.744 13.969 18.732 14.982C17.719 15.994 16.475 16.5 15 16.5ZM15 30C12.925 30 10.975 29.606 9.15 28.818C7.325 28.031 5.7375 26.9625 4.3875 25.6125C3.0375 24.2625 1.969 22.675 1.182 20.85C0.394 19.025 0 17.075 0 15C0 12.925 0.394 10.975 1.182 9.15C1.969 7.325 3.0375 5.7375 4.3875 4.3875C5.7375 3.0375 7.325 1.9685 9.15 1.1805C10.975 0.3935 12.925 0 15 0C17.075 0 19.025 0.3935 20.85 1.1805C22.675 1.9685 24.2625 3.0375 25.6125 4.3875C26.9625 5.7375 28.031 7.325 28.818 9.15C29.606 10.975 30 12.925 30 15C30 17.075 29.606 19.025 28.818 20.85C28.031 22.675 26.9625 24.2625 25.6125 25.6125C24.2625 26.9625 22.675 28.031 20.85 28.818C19.025 29.606 17.075 30 15 30Z" fill="black"/>
</svg>
