<svg width="30" height="30" viewBox="0 0 30 30" fill="none" xmlns="http://www.w3.org/2000/svg">
<path d="M15.7188 26.75C15.2188 27.25 14.625 27.5 13.9375 27.5C13.25 27.5 12.6562 27.25 12.1562 26.75L3.21875 17.8125C2.73958 17.3333 2.5 16.7448 2.5 16.0469C2.5 15.349 2.73958 14.7604 3.21875 14.2812L14.2188 3.25C14.4479 3.02083 14.7188 2.83854 15.0312 2.70312C15.3438 2.56771 15.6771 2.5 16.0312 2.5H24.9688C25.6562 2.5 26.2448 2.74479 26.7344 3.23438C27.224 3.72396 27.4688 4.3125 27.4688 5V13.9375C27.4688 14.2917 27.401 14.625 27.2656 14.9375C27.1302 15.25 26.9479 15.5208 26.7188 15.75L15.7188 26.75ZM21.8438 10C22.3646 10 22.8073 9.81771 23.1719 9.45312C23.5365 9.08854 23.7188 8.64583 23.7188 8.125C23.7188 7.60417 23.5365 7.16146 23.1719 6.79688C22.8073 6.43229 22.3646 6.25 21.8438 6.25C21.3229 6.25 20.8802 6.43229 20.5156 6.79688C20.151 7.16146 19.9688 7.60417 19.9688 8.125C19.9688 8.64583 20.151 9.08854 20.5156 9.45312C20.8802 9.81771 21.3229 10 21.8438 10Z" fill="black"/>
</svg>
